<svg xmlns="http://www.w3.org/2000/svg" viewBox="122 122 363 364"><path fill-rule="evenodd" class="il-ink" d="M 362.703 137.442 C 356.971 139.487, 351.263 143.618, 348.750 147.540 C 347.035 150.217, 346.025 150.910, 344.500 150.455 C 336.320 148.014, 335.149 147.883, 331.152 148.959 C 326.195 150.294, 320.159 155.954, 319.344 160.031 C 318.867 162.413, 317.927 163.196, 313.960 164.513 C 308.208 166.424, 300.625 173.576, 298.941 178.680 C 297.788 182.171, 298.073 193.046, 299.397 196.084 C 299.891 197.219, 298.904 198.487, 295.913 200.560 C 290.637 204.217, 287.362 209.388, 285.317 217.291 C 281.505 232.028, 290.864 247.622, 305.811 251.435 C 309.888 252.475, 310.508 253.023, 311.721 256.663 C 313.603 262.310, 319.292 268.607, 325.227 271.615 C 330.076 274.072, 338.097 274.552, 346.388 272.881 C 348.689 272.417, 354.331 282.655, 355.960 290.249 C 357.121 295.661, 357.338 310.253, 356.364 317.360 L 355.728 322 329.864 322 L 304 322 304 324.500 L 304 327 329 327 C 357.341 327, 356.814 326.815, 351.068 334.747 C 346.008 341.733, 338.813 346.045, 319.752 353.516 C 314.390 355.617, 310.231 357.565, 310.511 357.844 C 310.790 358.123, 314.029 359.981, 317.708 361.973 L 324.398 365.593 335.949 360.967 C 342.302 358.422, 348.940 355.588, 350.700 354.670 C 355.067 352.391, 355.111 352.433, 353.423 357.217 C 348.655 370.734, 335.321 384.419, 315.219 396.430 L 308.938 400.183 316.095 403.613 L 323.252 407.043 327.376 404.625 C 343.919 394.928, 359.053 379.825, 365.969 366.111 L 368.182 361.722 372.187 371.067 C 377.237 382.848, 377.798 385.968, 375.277 388.250 C 371.898 391.307, 367.913 391.430, 363.750 388.605 C 359.725 385.874, 359.070 386.227, 361.561 389.783 C 364.906 394.560, 370.962 395.871, 377.713 393.280 C 379.043 392.769, 379.172 393.268, 378.558 396.542 C 377.062 404.516, 370.893 412.418, 362.963 416.519 C 360.040 418.030, 359.857 418.425, 360.492 421.826 C 360.870 423.847, 361.341 425.665, 361.540 425.867 C 362.330 426.670, 374.817 420.099, 378.279 417.060 L 381.963 413.825 381.405 424.663 C 380.897 434.547, 381.035 435.796, 382.978 438.863 C 385.716 443.185, 386.336 442.463, 385.001 436.505 C 384.105 432.507, 384.284 430.365, 386.117 423.123 C 388.485 413.770, 389.368 404.807, 389.382 390 C 389.390 380.974, 389.131 379.814, 384.195 366.747 C 381.338 359.183, 379 352.295, 379 351.440 C 379 350.561, 381.339 352.409, 384.384 355.693 C 387.345 358.887, 392.300 363.300, 395.394 365.500 C 402.001 370.198, 402.637 371.889, 400.962 380.313 C 399.511 387.614, 400.216 392.883, 403.085 396.179 L 405.106 398.500 404.385 396 C 403.173 391.798, 403.775 384.754, 405.781 379.648 L 407.687 374.797 410.815 378.592 C 416.116 385.023, 418.438 395.088, 416.062 401.337 C 415.546 402.694, 411.834 407.111, 407.812 411.152 C 400.416 418.585, 396.914 425.039, 397.045 431 C 397.087 432.935, 397.742 432.182, 399.940 427.669 C 403.260 420.855, 406.512 417.204, 412.023 414.107 C 414.210 412.878, 415.995 412.013, 415.989 412.186 C 415.983 412.359, 415.308 414.709, 414.489 417.409 C 412.619 423.574, 412.581 431.062, 414.398 435.410 C 416.743 441.021, 417.862 440.573, 417.294 434.250 C 416.851 429.323, 417.279 427.212, 420.285 419.500 C 425.025 407.343, 425.988 403.504, 425.994 396.750 C 426.001 390.377, 426.043 390.327, 429.535 392.615 C 431.668 394.013, 432.002 394.989, 432.016 399.865 C 432.028 403.836, 432.692 406.658, 434.266 409.422 C 437.237 414.639, 439.517 415.480, 437.481 410.609 C 436.667 408.659, 436 404.749, 436 401.919 L 436 396.773 440.534 397.453 C 445.173 398.148, 452 396.642, 452 394.922 C 452 394.415, 449.856 394, 447.235 394 C 438.847 394, 429.871 387.487, 421.740 375.500 C 419.501 372.200, 415.382 367.365, 412.585 364.756 L 407.500 360.012 417.666 360.006 L 427.832 360 431.030 364.038 C 434.228 368.076, 439.075 371.133, 444.250 372.377 C 448.113 373.306, 447.685 372.592, 442.587 369.604 C 438.477 367.195, 434 361.736, 434 359.132 C 434 356.050, 451.438 359.465, 458.774 363.983 C 463.482 366.883, 463.858 366.481, 460.083 362.586 C 453.141 355.423, 446.817 353.636, 426 352.957 C 409.913 352.432, 406.725 352.051, 401.559 350.034 C 394.274 347.188, 386.901 340.142, 383.477 332.753 L 381.043 327.500 429.590 327.240 L 478.137 326.981 477.818 324.740 L 477.500 322.500 428.810 322.241 L 380.120 321.981 379.449 317.506 C 379.080 315.045, 378.952 308.187, 379.165 302.266 C 379.619 289.680, 381.741 284.635, 390.007 276.493 C 394.631 271.939, 394.961 271.791, 398.063 272.872 C 403.100 274.628, 412.911 274.223, 417.668 272.064 C 423.428 269.449, 429.567 262.818, 431.438 257.193 C 432.933 252.695, 433.237 252.430, 438.749 250.811 C 448.859 247.840, 456.946 238.451, 458.508 227.869 C 459.996 217.787, 454.810 205.550, 446.804 200.252 C 443.957 198.367, 443.111 197.249, 443.655 196.088 C 445.138 192.923, 445.185 181.377, 443.728 177.900 C 441.319 172.151, 436.847 167.805, 430.271 164.823 C 425.752 162.775, 424 161.446, 424 160.067 C 424 157.212, 419.125 151.962, 414.541 149.880 C 409.443 147.564, 405.455 147.526, 401 149.752 L 397.500 151.500 394.471 147.529 C 386.993 137.725, 373.723 133.511, 362.703 137.442 M 359 160.545 C 359 164.036, 362.496 169, 364.955 169 C 366.570 169, 366.189 161.715, 364.443 159.223 C 361.903 155.596, 359 156.301, 359 160.545 M 319.032 177.250 C 319.154 182.050, 330 186.356, 330 181.604 C 330 180.802, 328.814 179.212, 327.365 178.073 C 324.466 175.792, 318.981 175.251, 319.032 177.250 M 419.419 181.075 C 415.306 182.269, 413.044 184.954, 412.303 189.523 C 411.694 193.273, 411.707 193.290, 414.595 192.580 C 420.586 191.105, 424 187.241, 424 181.935 C 424 179.807, 423.870 179.783, 419.419 181.075 M 390.500 184.208 C 387.514 185.920, 386.067 188.184, 386.032 191.198 C 386.002 193.768, 386.143 193.846, 389.021 192.843 C 392.420 191.658, 394 189.349, 394 185.566 C 394 182.728, 393.451 182.515, 390.500 184.208 M 344 199.545 C 344 202.652, 348.120 207, 351.063 207 C 352.911 207, 353.120 206.610, 352.534 204.250 C 351.016 198.132, 344 194.265, 344 199.545 M 305.357 217.992 C 303.279 218.830, 300 222.644, 300 224.223 C 300 225.457, 306.336 225.062, 308.087 223.718 C 310.156 222.130, 312.104 218.437, 311.298 217.631 C 310.452 216.785, 307.974 216.935, 305.357 217.992 M 377.400 221.400 C 374.793 224.007, 374 225.639, 374 228.400 C 374 232.513, 373.924 232.476, 378.466 230.579 C 382.140 229.044, 385 224.654, 385 220.550 C 385 216.843, 381.573 217.227, 377.400 221.400 M 428.098 228.087 L 425.696 229.048 428.022 231.524 C 429.676 233.284, 431.407 234, 434.008 234 C 438.372 234, 439.249 233.333, 437.986 230.974 C 437.288 229.669, 431.408 226.556, 430.601 227.063 C 430.545 227.098, 429.419 227.559, 428.098 228.087 M 335 240.050 C 335 243.392, 337.825 247.858, 340.967 249.483 C 345.393 251.772, 347 251.436, 347 248.223 C 347 244.492, 344.456 241.088, 340.401 239.394 C 335.917 237.521, 335 237.632, 335 240.050 M 401.667 245.667 C 400.168 247.165, 401.152 252.061, 403.482 254.694 C 405.579 257.064, 406.120 257.267, 406.967 256 C 409.608 252.049, 404.752 242.582, 401.667 245.667 M 355.737 266.401 C 354.104 267.641, 354.315 268.153, 358.610 273.370 C 361.159 276.466, 363.614 279, 364.064 279 C 364.515 279, 365.500 276.863, 366.253 274.250 L 367.623 269.500 362.683 267.250 C 359.966 266.012, 357.689 265.014, 357.622 265.032 C 357.555 265.049, 356.707 265.666, 355.737 266.401 M 380.783 267.197 C 376.994 269.171, 375.355 272.915, 376.163 277.753 C 376.453 279.486, 377.397 278.954, 382.918 273.939 C 388.417 268.945, 389.151 267.887, 388.046 266.555 C 386.463 264.648, 385.515 264.732, 380.783 267.197 M 277.772 375.941 C 263.947 386.406, 256.458 399.449, 252.602 419.777 C 250.390 431.437, 247.877 435.314, 238.263 441.900 C 236.483 443.119, 232.967 446.794, 230.449 450.066 C 225.473 456.533, 221.085 459.441, 217.372 458.731 C 214.716 458.223, 214.132 459.453, 216.582 460.393 C 221.379 462.234, 226.463 460.686, 231.615 455.814 L 234.730 452.869 236.425 457.103 C 237.569 459.962, 237.909 462.581, 237.472 465.169 C 236.730 469.558, 237.581 470.232, 239.036 466.406 C 240.262 463.180, 240.490 457.735, 239.618 452.500 L 238.952 448.500 245.045 444.750 C 248.397 442.688, 251.499 441, 251.940 441 C 252.381 441, 253.046 443.693, 253.419 446.983 C 254.651 457.872, 262.695 481.043, 263.735 476.699 C 263.972 475.708, 263.411 470.700, 262.487 465.569 C 260.094 452.281, 260.232 452.045, 267.623 456.829 C 272.473 459.968, 274.241 461.846, 276.123 465.855 C 279.010 472.005, 280.107 472.420, 278.865 466.895 C 277.437 460.539, 275.679 457.891, 269.076 452.148 C 260.867 445.007, 259.693 442.546, 260.502 434.164 C 262.832 410.021, 272.135 394.537, 291.603 382.404 L 299.233 377.648 293.866 374.954 C 284.922 370.463, 285.015 370.458, 277.772 375.941 M 279.620 415.026 C 274.317 418.389, 272 422.334, 272 428 C 272 436.123, 277.164 441.631, 292.281 449.634 C 305.884 456.834, 310.473 462.159, 313.288 474.009 C 313.940 476.754, 314.796 479, 315.191 479 C 316.413 479, 317.282 472.076, 316.644 467.421 C 315.395 458.307, 311.501 453.335, 297.446 442.908 C 288.005 435.905, 284 431.857, 284 429.317 C 284 427.132, 288.481 423.491, 293.009 421.997 C 295.259 421.254, 297.260 420.388, 297.455 420.073 C 297.650 419.757, 294.732 417.849, 290.969 415.833 L 284.129 412.167 279.620 415.026"/><path fill-rule="evenodd" class="il-tone" d="M 227.994 136.876 C 222.735 138.598, 219.105 141.089, 214.681 146.010 L 210.101 151.104 207.100 149.552 C 198.983 145.354, 187.153 150.525, 183.967 159.665 C 183.140 162.037, 181.807 163.184, 178.337 164.509 C 168.562 168.242, 162.679 176.690, 162.671 187.004 C 162.669 190.032, 163.256 193.609, 163.975 194.954 C 165.155 197.159, 165.053 197.552, 162.933 198.950 C 157.556 202.496, 154.952 205.397, 152.301 210.796 C 146.734 222.133, 149.143 236.070, 158.161 244.693 C 161.764 248.139, 169.258 251.943, 172.515 251.978 C 174.026 251.995, 174.981 253.268, 176.329 257.064 C 180.950 270.075, 197.883 277.983, 210.500 273.023 C 213.395 271.884, 213.679 272.035, 218.611 277.319 C 226.321 285.579, 228.429 290.633, 228.850 301.868 C 229.043 307.020, 228.898 313.657, 228.529 316.618 L 227.856 322 178.928 322 L 130 322 130 324.393 C 130 325.709, 130.712 327.059, 131.582 327.393 C 132.452 327.727, 154.052 328, 179.582 328 C 217.798 328, 226 328.238, 226 329.345 C 226 331.041, 218.948 341.933, 216.387 344.193 C 215.332 345.124, 211.326 347.363, 207.484 349.169 C 200.590 352.411, 200.262 352.461, 182 353.053 C 162.063 353.700, 157.867 354.605, 151.069 359.729 C 147.616 362.331, 144.896 365.229, 145.417 365.751 C 145.557 365.890, 148.333 364.687, 151.586 363.077 C 160.759 358.535, 174 356.531, 174 359.684 C 174 361.741, 164.594 371, 162.503 371 C 161.676 371, 161 371.486, 161 372.079 C 161 373.355, 166.202 372.422, 170.052 370.456 C 171.455 369.740, 174.504 367.092, 176.826 364.573 L 181.048 359.992 190.023 360.246 C 194.959 360.386, 198.999 360.784, 198.999 361.131 C 199 361.479, 197.412 362.974, 195.472 364.454 C 193.531 365.934, 189.479 370.662, 186.467 374.960 C 177.353 387.968, 169.130 393.932, 160.250 393.978 C 157.912 393.990, 156 394.461, 156 395.025 C 156 396.760, 161.243 398.156, 166.499 397.820 L 171.500 397.500 171.815 401.334 C 171.989 403.443, 171.454 407.155, 170.626 409.584 C 169.799 412.013, 169.474 414, 169.906 414 C 172.957 414, 177.495 402.717, 176.546 397.491 C 176.122 395.154, 176.468 394.189, 178.097 393.171 C 180.819 391.471, 180.781 391.406, 181.977 399.835 C 182.539 403.803, 183.957 409.626, 185.126 412.775 C 191.083 428.813, 191.220 429.372, 190.568 435 L 189.931 440.500 192.167 438.271 C 194.901 435.545, 195.864 425.488, 194.072 418.371 C 192.605 412.546, 192.919 412.293, 197.798 415.373 C 202.381 418.265, 204.986 421.624, 208.495 429.161 L 210.980 434.500 210.980 430.500 C 210.980 424.410, 207.055 417.216, 200.068 410.500 C 196.635 407.200, 193.136 403.180, 192.292 401.566 C 189.269 395.784, 192.370 383.706, 198.297 378.175 L 200.789 375.849 202.508 381.023 C 203.645 384.448, 204.083 388.172, 203.804 392.040 C 203.351 398.301, 204.057 398.725, 206.635 393.738 C 208.234 390.646, 208.121 382.596, 206.368 374.694 C 205.832 372.279, 206.343 371.372, 210.032 368.194 C 212.390 366.162, 217.686 361.350, 221.801 357.500 C 230.493 349.368, 230.582 349.703, 224.047 366 C 218.858 378.940, 217.644 385.024, 218.347 394.568 C 218.668 398.931, 219.108 405.650, 219.325 409.500 C 219.542 413.350, 220.457 418.944, 221.359 421.932 C 223.210 428.058, 223.499 436.557, 221.992 440.521 C 220.563 444.279, 222.916 443.308, 225.354 439.134 C 227.475 435.502, 227.982 427.517, 226.630 419.059 L 225.760 413.619 230.350 417.659 C 235.856 422.506, 245.899 426.762, 247.156 424.782 C 249.386 421.267, 248.051 418.317, 242.587 414.689 C 235.017 409.663, 231.479 404.504, 229.542 395.670 C 228.970 393.058, 229.098 392.904, 231.211 393.670 C 236.173 395.469, 241.762 394.602, 244.961 391.538 C 248.287 388.351, 249.501 384.331, 246.248 387.275 C 241.458 391.610, 235.575 391.333, 232.491 386.627 C 230.953 384.279, 231.074 383.674, 235.093 373.618 C 237.411 367.818, 239.620 363.265, 240.001 363.501 C 240.383 363.737, 242.408 366.858, 244.501 370.438 C 248.120 376.625, 257.401 388.001, 258.830 388 C 259.198 387.999, 261.440 385.746, 263.811 382.993 L 268.122 377.987 263.663 372.243 C 258.997 366.233, 254 357.108, 254 354.598 C 254 353.499, 256.075 354.097, 262.250 356.975 C 266.788 359.089, 275 362.492, 280.500 364.535 C 292.318 368.927, 303.392 374.361, 314.267 381.106 C 318.607 383.797, 322.499 386, 322.915 386 C 324.062 386, 333 378.848, 333 377.930 C 333 376.497, 315.271 365.224, 306.358 360.989 C 301.584 358.721, 291.953 354.634, 284.955 351.907 C 269.141 345.745, 260.977 340.610, 256.986 334.317 C 255.344 331.727, 254 329.247, 254 328.804 C 254 328.362, 276.613 327.896, 304.250 327.768 C 331.887 327.640, 343.137 327.408, 329.250 327.251 L 304 326.966 304 324.483 L 304 322 278.139 322 L 252.279 322 251.648 316.750 C 249.779 301.191, 251.621 287.865, 256.935 278.500 C 259.402 274.152, 260.146 273.532, 262.636 273.749 C 272.677 274.621, 277.748 274.237, 282.156 272.271 C 288.464 269.459, 294.502 263.014, 296.519 256.943 C 297.727 253.306, 298.668 252, 300.080 252 C 303.150 252, 302.316 250.730, 296.936 247.212 C 280.845 236.689, 280.290 211.387, 295.913 200.560 C 298.904 198.487, 299.891 197.219, 299.397 196.084 C 298.097 193.101, 297.779 182.200, 298.893 178.825 C 299.505 176.969, 301.057 174.337, 302.341 172.976 L 304.675 170.500 301.667 168.268 C 300.013 167.040, 296.737 165.301, 294.388 164.404 C 291.190 163.183, 289.844 161.991, 289.033 159.665 C 285.829 150.473, 274.016 145.355, 265.805 149.601 L 262.710 151.202 258.771 146.594 C 252.619 139.396, 247.204 136.712, 238.117 136.354 C 233.928 136.189, 229.372 136.424, 227.994 136.876 M 224 160.277 C 224 164.283, 226.434 168, 229.057 168 C 231.737 168, 231.661 163.110, 228.927 159.635 C 226.031 155.953, 224 156.218, 224 160.277 M 281 173.707 C 276.117 175.136, 272 179.799, 272 183.901 C 272 185.734, 277.563 185.131, 280.265 183.006 C 285.081 179.218, 285.623 172.355, 281 173.707 M 184 177.066 C 184 180.692, 190.136 184.770, 192.963 183.023 C 194.815 181.878, 193.351 178.481, 190.434 177.152 C 187.264 175.708, 184 175.664, 184 177.066 M 255.315 184.061 C 251.170 185.629, 249.201 193, 252.927 193 C 256.380 193, 260.834 185.198, 258.250 183.676 C 257.837 183.434, 256.517 183.607, 255.315 184.061 M 209 199.826 C 209 202.932, 212.581 207, 215.314 207 C 217.893 207, 217.416 202.325, 214.545 199.455 C 211.201 196.110, 209 196.258, 209 199.826 M 169.451 218.131 C 165.915 219.849, 164.439 223.116, 166.514 224.634 C 167.945 225.680, 168.756 225.660, 170.955 224.523 C 178.294 220.728, 176.838 214.542, 169.451 218.131 M 244.241 219.325 C 240.056 221.649, 237.104 228.215, 239.140 230.668 C 240.987 232.894, 247.598 228.748, 249.006 224.482 C 250.945 218.606, 249.111 216.621, 244.241 219.325 M 200.303 241.477 C 201.054 246.105, 203.177 248.573, 207.688 250.062 C 212.001 251.485, 212.583 250.906, 211.424 246.338 C 210.425 242.394, 207.202 239.496, 202.595 238.398 C 199.710 237.710, 199.695 237.731, 200.303 241.477 M 266 249 C 266 253.114, 269.080 257.687, 271.036 256.477 C 272.543 255.547, 272.167 249.683, 270.443 247.223 C 267.926 243.629, 266 244.399, 266 249 M 220.913 266.605 C 219.680 268.091, 220.183 268.875, 225.427 273.641 C 228.673 276.591, 231.534 278.799, 231.785 278.548 C 232.036 278.298, 231.933 276.041, 231.557 273.533 C 230.955 269.515, 230.436 268.774, 227.187 267.290 C 225.159 266.363, 223.230 265.454, 222.900 265.269 C 222.570 265.085, 221.676 265.686, 220.913 266.605 M 245.222 267.387 C 241.268 269.315, 240.994 269.700, 241.591 272.486 C 243.022 279.165, 243.942 279.732, 247.173 275.928 C 252.713 269.407, 253.361 268.140, 251.996 266.495 C 250.537 264.737, 250.702 264.716, 245.222 267.387 M 404.819 327.749 C 418.195 327.907, 439.795 327.907, 452.819 327.749 C 465.844 327.591, 454.900 327.462, 428.500 327.462 C 402.100 327.463, 391.444 327.592, 404.819 327.749 M 281.208 396.288 C 278.894 398.646, 277 401.018, 277 401.558 C 277 403.617, 297.699 414.988, 313.318 421.511 C 319.395 424.048, 324 427.751, 324 430.100 C 324 431.782, 317.801 437.919, 312.972 441.018 C 310.238 442.773, 308 444.527, 308 444.916 C 308 445.305, 309.433 446.683, 311.184 447.978 L 314.367 450.331 320.910 446.939 C 329.167 442.658, 334.373 437.512, 335.688 432.330 C 338.385 421.704, 334.743 417.428, 314.714 407.701 C 306.346 403.638, 296.455 398.443, 292.732 396.157 C 289.010 393.870, 285.841 392, 285.691 392 C 285.540 392, 283.523 393.930, 281.208 396.288 M 342.587 399.589 C 338.033 403.066, 337.935 403.252, 339.434 405.539 C 342.218 409.788, 346.091 423.010, 347.067 431.596 C 348.284 442.313, 347.307 444.804, 339.091 451.921 C 332.771 457.396, 329.775 461.947, 328.669 467.750 C 327.906 471.754, 329.440 472.046, 330.796 468.156 C 332.233 464.033, 337.441 458.483, 342.556 455.625 L 347 453.141 347 455.320 C 347 456.519, 346.325 461.027, 345.500 465.338 C 344.675 469.649, 344 474.261, 344 475.588 C 344 484.610, 351.269 466.721, 354.479 449.796 C 355.330 445.311, 356.150 441.517, 356.300 441.366 C 356.451 441.216, 359.390 442.873, 362.832 445.049 L 369.090 449.006 368.296 452.753 C 367.221 457.833, 367.628 464.463, 369.186 467.226 C 370.352 469.295, 370.522 468.889, 371.067 462.717 C 371.862 453.709, 373.021 452.659, 377.442 456.943 C 381.563 460.938, 389.067 462.268, 392.500 459.611 C 394.387 458.151, 394.230 458.062, 389.705 458.032 C 384.485 457.997, 384.286 457.851, 376.101 448.050 C 373.681 445.153, 369.480 441.186, 366.765 439.236 C 360.149 434.483, 357.028 429.283, 355.889 421.122 C 354.500 411.160, 349.512 396, 347.623 396 C 347.439 396, 345.172 397.615, 342.587 399.589 M 294.268 458.250 C 291.508 461.779, 290.157 471.254, 291.630 476.750 C 292.605 480.389, 293.757 479.360, 294.953 473.782 C 295.569 470.913, 297.134 466.665, 298.432 464.343 C 300.657 460.362, 300.693 460.032, 299.067 458.561 C 296.983 456.674, 295.571 456.583, 294.268 458.250"/><path fill-rule="evenodd" class="il-accent" d="M 267.059 132.750 C 263.929 135.646, 262.263 141.447, 263.864 143.874 C 264.619 145.017, 265.281 144.947, 267.800 143.459 C 271.372 141.349, 273 138.216, 273 133.453 C 273 129.159, 271.174 128.943, 267.059 132.750 M 401.923 132.923 C 399.544 135.302, 399 136.698, 399 140.423 C 399 145.600, 399.263 145.747, 403.696 143.044 C 405.840 141.737, 407.283 139.789, 408.081 137.123 C 410.261 129.848, 407.132 127.714, 401.923 132.923 M 224 160.277 C 224 164.283, 226.434 168, 229.057 168 C 231.737 168, 231.661 163.110, 228.927 159.635 C 226.031 155.953, 224 156.218, 224 160.277 M 359 160.545 C 359 164.036, 362.496 169, 364.955 169 C 366.570 169, 366.189 161.715, 364.443 159.223 C 361.903 155.596, 359 156.301, 359 160.545 M 281 173.707 C 276.117 175.136, 272 179.799, 272 183.901 C 272 185.734, 277.563 185.131, 280.265 183.006 C 285.081 179.218, 285.623 172.355, 281 173.707 M 184 177.066 C 184 180.692, 190.136 184.770, 192.963 183.023 C 194.815 181.878, 193.351 178.481, 190.434 177.152 C 187.264 175.708, 184 175.664, 184 177.066 M 319.032 177.250 C 319.154 182.050, 330 186.356, 330 181.604 C 330 180.802, 328.814 179.212, 327.365 178.073 C 324.466 175.792, 318.981 175.251, 319.032 177.250 M 419.419 181.075 C 415.306 182.269, 413.044 184.954, 412.303 189.523 C 411.694 193.273, 411.707 193.290, 414.595 192.580 C 420.586 191.105, 424 187.241, 424 181.935 C 424 179.807, 423.870 179.783, 419.419 181.075 M 146.600 185.750 C 147.634 190.206, 149.920 193.068, 153.709 194.652 C 158.363 196.596, 159.614 195.391, 158.005 190.515 C 156.697 186.551, 152.089 183.010, 148.231 183.004 C 146.267 183.001, 146.048 183.370, 146.600 185.750 M 255.315 184.061 C 251.170 185.629, 249.201 193, 252.927 193 C 256.380 193, 260.834 185.198, 258.250 183.676 C 257.837 183.434, 256.517 183.607, 255.315 184.061 M 390.500 184.208 C 387.514 185.920, 386.067 188.184, 386.032 191.198 C 386.002 193.768, 386.143 193.846, 389.021 192.843 C 392.420 191.658, 394 189.349, 394 185.566 C 394 182.728, 393.451 182.515, 390.500 184.208 M 454.353 184.926 C 451.095 186.913, 448.029 193.468, 449.642 194.998 C 451.031 196.315, 457.166 193.710, 459.058 191 C 460.018 189.625, 461.081 187.262, 461.421 185.750 C 461.954 183.376, 461.728 183.001, 459.769 183.004 C 458.521 183.006, 456.084 183.871, 454.353 184.926 M 144.952 198.838 C 141.955 201.265, 143.186 203, 147.904 203 C 152.885 203, 156.320 199.777, 153.149 198.080 C 150.207 196.505, 147.527 196.753, 144.952 198.838 M 209 199.826 C 209 202.932, 212.581 207, 215.314 207 C 217.893 207, 217.416 202.325, 214.545 199.455 C 211.201 196.110, 209 196.258, 209 199.826 M 344 199.545 C 344 202.652, 348.120 207, 351.063 207 C 352.911 207, 353.120 206.610, 352.534 204.250 C 351.016 198.132, 344 194.265, 344 199.545 M 454.625 198.285 C 452.960 199.502, 452.971 199.664, 454.833 201.349 C 457.129 203.426, 462.562 203.848, 464.296 202.083 C 465.238 201.125, 464.985 200.437, 463.139 198.929 C 460.407 196.697, 457.135 196.449, 454.625 198.285 M 169.451 218.131 C 166.961 219.341, 164.712 222.725, 165.525 224.041 C 167.453 227.160, 177.019 222.098, 175.699 218.658 C 174.993 216.819, 172.571 216.615, 169.451 218.131 M 305.357 217.992 C 303.279 218.830, 300 222.644, 300 224.223 C 300 225.457, 306.336 225.062, 308.087 223.718 C 310.156 222.130, 312.104 218.437, 311.298 217.631 C 310.452 216.785, 307.974 216.935, 305.357 217.992 M 244.241 219.325 C 240.056 221.649, 237.104 228.215, 239.140 230.668 C 240.987 232.894, 247.598 228.748, 249.006 224.482 C 250.945 218.606, 249.111 216.621, 244.241 219.325 M 377.400 221.400 C 374.793 224.007, 374 225.639, 374 228.400 C 374 232.513, 373.924 232.476, 378.466 230.579 C 382.140 229.044, 385 224.654, 385 220.550 C 385 216.843, 381.573 217.227, 377.400 221.400 M 428.098 228.087 L 425.696 229.048 428.022 231.524 C 429.676 233.284, 431.407 234, 434.008 234 C 438.372 234, 439.249 233.333, 437.986 230.974 C 437.288 229.669, 431.408 226.556, 430.601 227.063 C 430.545 227.098, 429.419 227.559, 428.098 228.087 M 200.303 241.477 C 201.054 246.105, 203.177 248.573, 207.688 250.062 C 212.001 251.485, 212.583 250.906, 211.424 246.338 C 210.425 242.394, 207.202 239.496, 202.595 238.398 C 199.710 237.710, 199.695 237.731, 200.303 241.477 M 335 240.050 C 335 243.392, 337.825 247.858, 340.967 249.483 C 345.393 251.772, 347 251.436, 347 248.223 C 347 244.492, 344.456 241.088, 340.401 239.394 C 335.917 237.521, 335 237.632, 335 240.050 M 266 249 C 266 253.114, 269.080 257.687, 271.036 256.477 C 272.543 255.547, 272.167 249.683, 270.443 247.223 C 267.926 243.629, 266 244.399, 266 249 M 401.667 245.667 C 400.168 247.165, 401.152 252.061, 403.482 254.694 C 405.579 257.064, 406.120 257.267, 406.967 256 C 409.608 252.049, 404.752 242.582, 401.667 245.667 M 158.357 254.968 C 155.764 256.043, 153 259.786, 153 262.223 C 153 263.635, 153.837 264, 157.077 264 C 164.613 264, 170.694 254.796, 163.492 254.290 C 161.846 254.174, 159.536 254.479, 158.357 254.968 M 441.265 254.607 C 439.624 255.337, 442.109 260.263, 445.217 262.439 C 448.573 264.790, 455 264.538, 455 262.056 C 455 257.180, 446.202 252.409, 441.265 254.607 M 169.200 259.200 C 167.546 260.854, 167.689 267.497, 169.410 268.925 C 172.340 271.357, 175.203 264.116, 172.965 259.934 C 171.767 257.697, 170.877 257.523, 169.200 259.200 M 434.983 260.032 C 433.788 262.265, 434.389 266.559, 436.203 268.744 C 437.829 270.704, 438.716 270.254, 439.895 266.871 C 441.782 261.458, 437.449 255.425, 434.983 260.032"/></svg>